<svg width="32" height="32" viewBox="0 0 32 32" fill="currentColor" xmlns="http://www.w3.org/2000/svg">
    <path d="M16 0.5C7.4375 0.5 0.5 7.4375 0.5 16C0.5 24.5625 7.4375 31.5 16 31.5C24.5625 31.5 31.5 24.5625 31.5 16C31.5 7.4375 24.5625 0.5 16 0.5ZM16 28.5C9.10625 28.5 3.5 22.8937 3.5 16C3.5 9.10625 9.10625 3.5 16 3.5C22.8937 3.5 28.5 9.10625 28.5 16C28.5 22.8937 22.8937 28.5 16 28.5ZM11 15C12.1062 15 13 14.1062 13 13C13 11.8938 12.1062 11 11 11C9.89375 11 9 11.8938 9 13C9 14.1062 9.89375 15 11 15ZM21 15C22.1063 15 23 14.1062 23 13C23 11.8938 22.1063 11 21 11C19.8937 11 19 11.8938 19 13C19 14.1062 19.8937 15 21 15ZM21.25 19.5375C19.95 21.1 18.0312 22 16 22C13.9688 22 12.05 21.1063 10.75 19.5375C10.2188 18.9 9.26875 18.8188 8.6375 19.3438C8 19.875 7.91875 20.8187 8.44375 21.4562C10.3188 23.7062 13.075 24.9937 16 24.9937C18.925 24.9937 21.6812 23.7062 23.5562 21.4562C24.0875 20.8187 24 19.875 23.3625 19.3438C22.7312 18.8188 21.7812 18.9 21.25 19.5375Z"/>
</svg>
